<svg width="32" height="32" viewBox="0 0 32 32" fill="none" xmlns="http://www.w3.org/2000/svg">
<path d="M10 12V11.3333C10 10.597 10.597 10 11.3333 10H12C12.3682 10 12.6667 10.2985 12.6667 10.6667C12.6667 11.0349 12.3682 11.3333 12 11.3333H11.3333V12C11.3333 12.3682 11.0349 12.6667 10.6667 12.6667C10.2985 12.6667 10 12.3682 10 12Z" fill="#626F86"/>
<path fill-rule="evenodd" clip-rule="evenodd" d="M12 13.3333C12 12.597 12.597 12 13.3333 12H20.6667C21.4031 12 22 12.597 22 13.3333V20C22 20.7364 21.4031 21.3333 20.6667 21.3333H13.3333C12.597 21.3333 12 20.7364 12 20V13.3333ZM13.3333 13.3333H20.6667V17.3333H13.3333V13.3333ZM20 20C19.6318 20 19.3333 19.7015 19.3333 19.3333C19.3333 18.9651 19.6318 18.6667 20 18.6667C20.3682 18.6667 20.6667 18.9651 20.6667 19.3333C20.6667 19.7015 20.3682 20 20 20ZM13.3333 19.3333C13.3333 19.7015 13.6318 20 14 20H16C16.3682 20 16.6667 19.7015 16.6667 19.3333C16.6667 18.9651 16.3682 18.6667 16 18.6667H14C13.6318 18.6667 13.3333 18.9651 13.3333 19.3333Z" fill="#626F86"/>
<path d="M10.6667 17.3333C10.2985 17.3333 10 17.6317 10 17.9999V18.6666C10 19.403 10.597 19.9999 11.3333 19.9999V17.9999C11.3333 17.6317 11.0349 17.3333 10.6667 17.3333Z" fill="#626F86"/>
<path d="M10 13.9999C10 13.6317 10.2985 13.3333 10.6667 13.3333C11.0349 13.3333 11.3333 13.6317 11.3333 13.9999V15.9999C11.3333 16.3681 11.0349 16.6666 10.6667 16.6666C10.2985 16.6666 10 16.3681 10 15.9999V13.9999Z" fill="#626F86"/>
<path d="M13.3333 10.6667C13.3333 10.2985 13.6318 10 14 10H16.6667C17.0349 10 17.3333 10.2985 17.3333 10.6667C17.3333 11.0349 17.0349 11.3333 16.6667 11.3333H14C13.6318 11.3333 13.3333 11.0349 13.3333 10.6667Z" fill="#626F86"/>
<path d="M18.6667 10C18.2985 10 18 10.2985 18 10.6667C18 11.0349 18.2985 11.3333 18.6667 11.3333H20.6667C20.6667 10.597 20.0697 10 19.3333 10H18.6667Z" fill="#626F86"/>
</svg>
