<svg width="105" height="16" viewBox="0 0 105 16" fill="none" xmlns="http://www.w3.org/2000/svg">
<rect x="0.650024" width="103.39" height="16" rx="3" fill="#DCDFE4"/>
<g clip-path="url(#clip0_12_1504)">
<g clip-path="url(#clip1_12_1504)">
<path d="M8.83381 4.877H10.5498V12.5H8.83381V4.877ZM17.4293 12.5C16.9379 11.6273 16.4063 10.7657 15.8343 9.915C15.2623 9.06433 14.6536 8.26133 14.0083 7.506V12.5H12.3143V4.877H13.7113C13.9533 5.119 14.2209 5.416 14.5143 5.768C14.8076 6.12 15.1046 6.49767 15.4053 6.901C15.7133 7.297 16.0176 7.71133 16.3183 8.144C16.6189 8.56933 16.9013 8.98 17.1653 9.376V4.877H18.8703V12.5H17.4293ZM20.0237 8.474H23.2137V9.959H20.0237V8.474ZM26.655 4.789C27.7917 4.789 28.6643 4.99067 29.273 5.394C29.8817 5.79 30.186 6.44267 30.186 7.352C30.186 8.26867 29.878 8.93233 29.262 9.343C28.646 9.74633 27.766 9.948 26.622 9.948H26.083V12.5H24.367V4.987C24.741 4.91367 25.137 4.86233 25.555 4.833C25.973 4.80367 26.3397 4.789 26.655 4.789ZM26.765 6.252C26.6403 6.252 26.5157 6.25567 26.391 6.263C26.2737 6.27033 26.171 6.27767 26.083 6.285V8.485H26.622C27.216 8.485 27.6633 8.40433 27.964 8.243C28.2647 8.08167 28.415 7.781 28.415 7.341C28.415 7.12833 28.3747 6.95233 28.294 6.813C28.2207 6.67367 28.1107 6.56367 27.964 6.483C27.8247 6.395 27.6523 6.33633 27.447 6.307C27.2417 6.27033 27.0143 6.252 26.765 6.252ZM33.6791 4.789C34.8231 4.789 35.6994 4.99433 36.3081 5.405C36.9168 5.80833 37.2211 6.439 37.2211 7.297C37.2211 7.83233 37.0964 8.26867 36.8471 8.606C36.6051 8.936 36.2531 9.19633 35.7911 9.387C35.9451 9.57767 36.1065 9.79767 36.2751 10.047C36.4438 10.289 36.6088 10.5457 36.7701 10.817C36.9388 11.081 37.1001 11.3597 37.2541 11.653C37.4081 11.939 37.5511 12.2213 37.6831 12.5H35.7581C35.6188 12.2507 35.4758 11.9977 35.3291 11.741C35.1898 11.4843 35.0431 11.235 34.8891 10.993C34.7424 10.751 34.5958 10.5237 34.4491 10.311C34.3024 10.091 34.1558 9.893 34.0091 9.717H33.1621V12.5H31.4461V4.987C31.8201 4.91367 32.2051 4.86233 32.6011 4.833C33.0044 4.80367 33.3638 4.789 33.6791 4.789ZM33.7781 6.252C33.6534 6.252 33.5398 6.25567 33.4371 6.263C33.3418 6.27033 33.2501 6.27767 33.1621 6.285V8.353H33.6461C34.2914 8.353 34.7534 8.27233 35.0321 8.111C35.3108 7.94967 35.4501 7.67467 35.4501 7.286C35.4501 6.912 35.3071 6.648 35.0211 6.494C34.7424 6.33267 34.3281 6.252 33.7781 6.252ZM40.0307 8.683C40.0307 9.057 40.0747 9.39433 40.1627 9.695C40.258 9.99567 40.39 10.256 40.5587 10.476C40.7347 10.6887 40.9473 10.8537 41.1967 10.971C41.446 11.0883 41.732 11.147 42.0547 11.147C42.37 11.147 42.6523 11.0883 42.9017 10.971C43.1583 10.8537 43.371 10.6887 43.5397 10.476C43.7157 10.256 43.8477 9.99567 43.9357 9.695C44.031 9.39433 44.0787 9.057 44.0787 8.683C44.0787 8.309 44.031 7.97167 43.9357 7.671C43.8477 7.363 43.7157 7.10267 43.5397 6.89C43.371 6.67 43.1583 6.50133 42.9017 6.384C42.6523 6.26667 42.37 6.208 42.0547 6.208C41.732 6.208 41.446 6.27033 41.1967 6.395C40.9473 6.51233 40.7347 6.681 40.5587 6.901C40.39 7.11367 40.258 7.374 40.1627 7.682C40.0747 7.98267 40.0307 8.31633 40.0307 8.683ZM45.8497 8.683C45.8497 9.33567 45.7507 9.91133 45.5527 10.41C45.362 10.9013 45.098 11.3157 44.7607 11.653C44.4233 11.983 44.02 12.2323 43.5507 12.401C43.0887 12.5697 42.59 12.654 42.0547 12.654C41.534 12.654 41.0427 12.5697 40.5807 12.401C40.1187 12.2323 39.7153 11.983 39.3707 11.653C39.026 11.3157 38.7547 10.9013 38.5567 10.41C38.3587 9.91133 38.2597 9.33567 38.2597 8.683C38.2597 8.03033 38.3623 7.45833 38.5677 6.967C38.773 6.46833 39.048 6.05033 39.3927 5.713C39.7447 5.37567 40.148 5.12267 40.6027 4.954C41.0647 4.78533 41.5487 4.701 42.0547 4.701C42.5753 4.701 43.0667 4.78533 43.5287 4.954C43.9907 5.12267 44.394 5.37567 44.7387 5.713C45.0833 6.05033 45.3547 6.46833 45.5527 6.967C45.7507 7.45833 45.8497 8.03033 45.8497 8.683ZM50.9981 6.197C50.1988 6.197 49.6194 6.42067 49.2601 6.868C48.9081 7.308 48.7321 7.913 48.7321 8.683C48.7321 9.057 48.7761 9.398 48.8641 9.706C48.9521 10.0067 49.0841 10.267 49.2601 10.487C49.4361 10.707 49.6561 10.8793 49.9201 11.004C50.1841 11.1213 50.4921 11.18 50.8441 11.18C51.0348 11.18 51.1961 11.1763 51.3281 11.169C51.4674 11.1617 51.5884 11.147 51.6911 11.125V8.474H53.4071V12.247C53.2018 12.3277 52.8718 12.412 52.4171 12.5C51.9624 12.5953 51.4014 12.643 50.7341 12.643C50.1621 12.643 49.6414 12.555 49.1721 12.379C48.7101 12.203 48.3141 11.9463 47.9841 11.609C47.6541 11.2717 47.3974 10.8573 47.2141 10.366C47.0381 9.87467 46.9501 9.31367 46.9501 8.683C46.9501 8.045 47.0491 7.48033 47.2471 6.989C47.4451 6.49767 47.7164 6.08333 48.0611 5.746C48.4058 5.40133 48.8091 5.141 49.2711 4.965C49.7404 4.789 50.2391 4.701 50.7671 4.701C51.1264 4.701 51.4491 4.72667 51.7351 4.778C52.0284 4.822 52.2778 4.877 52.4831 4.943C52.6958 5.00167 52.8681 5.064 53.0001 5.13C53.1394 5.196 53.2384 5.24733 53.2971 5.284L52.8021 6.659C52.5674 6.53433 52.2961 6.428 51.9881 6.34C51.6874 6.24467 51.3574 6.197 50.9981 6.197ZM57.2367 4.789C58.3807 4.789 59.2571 4.99433 59.8657 5.405C60.4744 5.80833 60.7787 6.439 60.7787 7.297C60.7787 7.83233 60.6541 8.26867 60.4047 8.606C60.1627 8.936 59.8107 9.19633 59.3487 9.387C59.5027 9.57767 59.6641 9.79767 59.8327 10.047C60.0014 10.289 60.1664 10.5457 60.3277 10.817C60.4964 11.081 60.6577 11.3597 60.8117 11.653C60.9657 11.939 61.1087 12.2213 61.2407 12.5H59.3157C59.1764 12.2507 59.0334 11.9977 58.8867 11.741C58.7474 11.4843 58.6007 11.235 58.4467 10.993C58.3001 10.751 58.1534 10.5237 58.0067 10.311C57.8601 10.091 57.7134 9.893 57.5667 9.717H56.7197V12.5H55.0037V4.987C55.3777 4.91367 55.7627 4.86233 56.1587 4.833C56.5621 4.80367 56.9214 4.789 57.2367 4.789ZM57.3357 6.252C57.2111 6.252 57.0974 6.25567 56.9947 6.263C56.8994 6.27033 56.8077 6.27767 56.7197 6.285V8.353H57.2037C57.8491 8.353 58.3111 8.27233 58.5897 8.111C58.8684 7.94967 59.0077 7.67467 59.0077 7.286C59.0077 6.912 58.8647 6.648 58.5787 6.494C58.3001 6.33267 57.8857 6.252 57.3357 6.252ZM62.3406 12.5V4.877H67.4886V6.318H64.0566V7.814H67.1036V9.222H64.0566V11.059H67.7416V12.5H62.3406ZM71.0905 11.191C71.3325 11.191 71.5305 11.1727 71.6845 11.136C71.8459 11.092 71.9742 11.037 72.0695 10.971C72.1649 10.8977 72.2309 10.8133 72.2675 10.718C72.3042 10.6227 72.3225 10.5163 72.3225 10.399C72.3225 10.1497 72.2052 9.94433 71.9705 9.783C71.7359 9.61433 71.3325 9.43467 70.7605 9.244C70.5112 9.156 70.2619 9.057 70.0125 8.947C69.7632 8.82967 69.5395 8.68667 69.3415 8.518C69.1435 8.342 68.9822 8.133 68.8575 7.891C68.7329 7.64167 68.6705 7.341 68.6705 6.989C68.6705 6.637 68.7365 6.32167 68.8685 6.043C69.0005 5.757 69.1875 5.515 69.4295 5.317C69.6715 5.119 69.9649 4.96867 70.3095 4.866C70.6542 4.756 71.0429 4.701 71.4755 4.701C71.9889 4.701 72.4325 4.756 72.8065 4.866C73.1805 4.976 73.4885 5.097 73.7305 5.229L73.2355 6.582C73.0229 6.472 72.7845 6.37667 72.5205 6.296C72.2639 6.208 71.9522 6.164 71.5855 6.164C71.1749 6.164 70.8779 6.22267 70.6945 6.34C70.5185 6.45 70.4305 6.62233 70.4305 6.857C70.4305 6.99633 70.4635 7.11367 70.5295 7.209C70.5955 7.30433 70.6872 7.39233 70.8045 7.473C70.9292 7.54633 71.0685 7.616 71.2225 7.682C71.3839 7.74067 71.5599 7.803 71.7505 7.869C72.1465 8.01567 72.4912 8.16233 72.7845 8.309C73.0779 8.44833 73.3199 8.61333 73.5105 8.804C73.7085 8.99467 73.8552 9.21833 73.9505 9.475C74.0459 9.73167 74.0935 10.0433 74.0935 10.41C74.0935 11.1213 73.8442 11.675 73.3455 12.071C72.8469 12.4597 72.0952 12.654 71.0905 12.654C70.7532 12.654 70.4489 12.632 70.1775 12.588C69.9062 12.5513 69.6642 12.5037 69.4515 12.445C69.2462 12.3863 69.0665 12.324 68.9125 12.258C68.7659 12.192 68.6412 12.1297 68.5385 12.071L69.0225 10.707C69.2499 10.8317 69.5285 10.9453 69.8585 11.048C70.1959 11.1433 70.6065 11.191 71.0905 11.191ZM77.4929 11.191C77.7349 11.191 77.9329 11.1727 78.0869 11.136C78.2482 11.092 78.3766 11.037 78.4719 10.971C78.5672 10.8977 78.6332 10.8133 78.6699 10.718C78.7066 10.6227 78.7249 10.5163 78.7249 10.399C78.7249 10.1497 78.6076 9.94433 78.3729 9.783C78.1382 9.61433 77.7349 9.43467 77.1629 9.244C76.9136 9.156 76.6642 9.057 76.4149 8.947C76.1656 8.82967 75.9419 8.68667 75.7439 8.518C75.5459 8.342 75.3846 8.133 75.2599 7.891C75.1352 7.64167 75.0729 7.341 75.0729 6.989C75.0729 6.637 75.1389 6.32167 75.2709 6.043C75.4029 5.757 75.5899 5.515 75.8319 5.317C76.0739 5.119 76.3672 4.96867 76.7119 4.866C77.0566 4.756 77.4452 4.701 77.8779 4.701C78.3912 4.701 78.8349 4.756 79.2089 4.866C79.5829 4.976 79.8909 5.097 80.1329 5.229L79.6379 6.582C79.4252 6.472 79.1869 6.37667 78.9229 6.296C78.6662 6.208 78.3546 6.164 77.9879 6.164C77.5772 6.164 77.2802 6.22267 77.0969 6.34C76.9209 6.45 76.8329 6.62233 76.8329 6.857C76.8329 6.99633 76.8659 7.11367 76.9319 7.209C76.9979 7.30433 77.0896 7.39233 77.2069 7.473C77.3316 7.54633 77.4709 7.616 77.6249 7.682C77.7862 7.74067 77.9622 7.803 78.1529 7.869C78.5489 8.01567 78.8936 8.16233 79.1869 8.309C79.4802 8.44833 79.7222 8.61333 79.9129 8.804C80.1109 8.99467 80.2576 9.21833 80.3529 9.475C80.4482 9.73167 80.4959 10.0433 80.4959 10.41C80.4959 11.1213 80.2466 11.675 79.7479 12.071C79.2492 12.4597 78.4976 12.654 77.4929 12.654C77.1556 12.654 76.8512 12.632 76.5799 12.588C76.3086 12.5513 76.0666 12.5037 75.8539 12.445C75.6486 12.3863 75.4689 12.324 75.3149 12.258C75.1682 12.192 75.0436 12.1297 74.9409 12.071L75.4249 10.707C75.6522 10.8317 75.9309 10.9453 76.2609 11.048C76.5982 11.1433 77.0089 11.191 77.4929 11.191Z" fill="#44546F"/>
</g>
<path d="M92.6275 10.7456L88.5028 6.62081C88.275 6.39301 88.275 6.02366 88.5028 5.79586C88.7306 5.56805 89.0999 5.56805 89.3277 5.79586L93.04 9.50816L96.7524 5.79586C96.9801 5.56805 97.3495 5.56805 97.5773 5.79586C97.8051 6.02366 97.8051 6.39301 97.5773 6.62081L93.4525 10.7456C93.2247 10.9734 92.8553 10.9734 92.6275 10.7456Z" fill="#44546F"/>
</g>
<defs>
<clipPath id="clip0_12_1504">
<rect width="95.39" height="16" fill="white" transform="translate(4.65002)"/>
</clipPath>
<clipPath id="clip1_12_1504">
<rect width="79.39" height="16" fill="white" transform="translate(4.65002)"/>
</clipPath>
</defs>
</svg>
