<svg width="33" height="32" viewBox="0 0 33 32" fill="none" xmlns="http://www.w3.org/2000/svg">
<path fill-rule="evenodd" clip-rule="evenodd" d="M13.1566 21.9966L16.1599 20.4177L19.1633 21.9966C19.3639 22.1021 19.5938 22.1385 19.8173 22.1002C20.3784 22.0039 20.7553 21.471 20.6591 20.9099L20.0855 17.5656L22.5152 15.1972C22.6775 15.0389 22.7832 14.8316 22.8158 14.6072C22.8977 14.0438 22.5073 13.5206 21.9439 13.4388L18.5861 12.9508L17.0844 9.90816C16.9841 9.70485 16.8195 9.54028 16.6162 9.43994C16.1056 9.18796 15.4875 9.39759 15.2355 9.90816L13.7338 12.9508L10.376 13.4388C10.1516 13.4714 9.94428 13.577 9.78602 13.7394C9.3886 14.1471 9.39694 14.7998 9.80466 15.1972L12.2344 17.5656L11.6608 20.9099C11.6225 21.1333 11.6589 21.3631 11.7644 21.5639C12.0293 22.0678 12.6527 22.2615 13.1566 21.9966ZM21.0571 14.6989L18.6085 17.0857L19.1865 20.4559L16.1599 18.8647L13.1333 20.4559L13.7113 17.0857L11.2627 14.6989L14.6466 14.2072L16.1599 11.1409L17.6733 14.2072L21.0571 14.6989Z" fill="#172B4D"/>
</svg>
