<svg width="24" height="24" viewBox="0 0 24 24" fill="none" xmlns="http://www.w3.org/2000/svg">
<rect width="24" height="24" rx="12" fill="#091E42" fill-opacity="0.06"/>
<path fill-rule="evenodd" clip-rule="evenodd" d="M8 6.66667V7.33333H7.33C6.59467 7.33333 6 7.92867 6 8.66267V16.6707C6 17.404 6.59533 18 7.33 18H16.67C17.4053 18 18 17.4047 18 16.6707V8.66267C18 7.93 17.4047 7.33333 16.67 7.33333H16V6.66667C16 6.29867 15.7013 6 15.3333 6C14.9653 6 14.6667 6.29867 14.6667 6.66667V7.33333H9.33333V6.66667C9.33333 6.29867 9.03467 6 8.66667 6C8.29867 6 8 6.29867 8 6.66667ZM7.5 10.3807V15.812C7.5 16.182 7.796 16.476 8.162 16.476H15.8387C16.2 16.476 16.5 16.1787 16.5 15.812V10.3807H7.5ZM10 12.6667V11.3327H8.66667V12.6667H10ZM15.3333 11.3327V12.6667H14V11.3327H15.3333ZM11.3333 12.6667H12.6673V11.3327H11.3333V12.6667ZM8.66667 15.3333V14H10V15.3333H8.66667ZM11.3333 15.3333H12.6673V14H11.3333V15.3333ZM15.3333 14V15.3333H14V14H15.3333Z" fill="#626F86"/>
</svg>
