<svg width="16" height="16" viewBox="0 0 16 16" fill="none" xmlns="http://www.w3.org/2000/svg">
<path d="M8.66671 4.00016C8.66671 3.63198 8.36824 3.3335 8.00004 3.3335C7.63184 3.3335 7.33337 3.63198 7.33337 4.00016V8.00016C7.33337 8.17696 7.40364 8.34656 7.52864 8.47156L9.19531 10.1382C9.45564 10.3986 9.87777 10.3986 10.1381 10.1382C10.3984 9.8779 10.3984 9.45576 10.1381 9.19543L8.66671 7.72403V4.00016Z" fill="#172B4D"/>
<path fill-rule="evenodd" clip-rule="evenodd" d="M14.6667 8.00016C14.6667 11.682 11.6819 14.6668 8.00004 14.6668C4.31814 14.6668 1.33337 11.682 1.33337 8.00016C1.33337 4.31826 4.31814 1.3335 8.00004 1.3335C11.6819 1.3335 14.6667 4.31826 14.6667 8.00016ZM8.00004 13.3335C10.9456 13.3335 13.3334 10.9457 13.3334 8.00016C13.3334 5.05464 10.9456 2.66683 8.00004 2.66683C5.05452 2.66683 2.66671 5.05464 2.66671 8.00016C2.66671 10.9457 5.05452 13.3335 8.00004 13.3335Z" fill="#172B4D"/>
</svg>
