<svg width="16" height="16" viewBox="0 0 16 16" fill="none" xmlns="http://www.w3.org/2000/svg">
<path fill-rule="evenodd" clip-rule="evenodd" d="M3.33333 9.33341C4.06971 9.33341 4.66667 8.73648 4.66667 8.00008C4.66667 7.26368 4.06971 6.66675 3.33333 6.66675C2.59695 6.66675 2 7.26368 2 8.00008C2 8.73648 2.59695 9.33341 3.33333 9.33341ZM8 9.33341C8.7364 9.33341 9.33333 8.73648 9.33333 8.00008C9.33333 7.26368 8.7364 6.66675 8 6.66675C7.2636 6.66675 6.66667 7.26368 6.66667 8.00008C6.66667 8.73648 7.2636 9.33341 8 9.33341ZM14 8.00008C14 8.73648 13.4031 9.33341 12.6667 9.33341C11.9303 9.33341 11.3333 8.73648 11.3333 8.00008C11.3333 7.26368 11.9303 6.66675 12.6667 6.66675C13.4031 6.66675 14 7.26368 14 8.00008Z" fill="#626F86"/>
</svg>
