<svg width="86" height="32" viewBox="0 0 86 32" fill="none" xmlns="http://www.w3.org/2000/svg">
<rect width="85.09" height="32" rx="3" fill="black" fill-opacity="0.5"/>
<path fill-rule="evenodd" clip-rule="evenodd" d="M13.3333 11.6666V16.9999C13.3333 17.7363 13.9303 18.3333 14.6667 18.3333H16C16.7364 18.3333 17.3333 17.7363 17.3333 16.9999V11.6666C17.3333 10.9302 16.7364 10.3333 16 10.3333H14.6667C13.9303 10.3333 13.3333 10.9302 13.3333 11.6666ZM14.6667 11.6666V16.9999H16V11.6666H14.6667Z" fill="white"/>
<path fill-rule="evenodd" clip-rule="evenodd" d="M18 11.6666V15.6666C18 16.403 18.597 16.9999 19.3333 16.9999H20.6667C21.4031 16.9999 22 16.403 22 15.6666V11.6666C22 10.9302 21.4031 10.3333 20.6667 10.3333H19.3333C18.597 10.3333 18 10.9302 18 11.6666ZM19.3333 11.6666V15.6666H20.6667V11.6666H19.3333Z" fill="white"/>
<path fill-rule="evenodd" clip-rule="evenodd" d="M22.6667 18.3333V11.6666C22.6667 10.9302 23.2636 10.3333 24 10.3333H25.3333C26.0697 10.3333 26.6667 10.9302 26.6667 11.6666V18.3333C26.6667 19.0697 26.0697 19.6666 25.3333 19.6666H24C23.2636 19.6666 22.6667 19.0697 22.6667 18.3333ZM24 18.3333V11.6666H25.3333V18.3333H24Z" fill="white"/>
<path d="M38.7441 16.002H36.208L36.1943 14.751H38.4092C38.7829 14.751 39.0996 14.6963 39.3594 14.5869C39.6237 14.473 39.8242 14.3112 39.9609 14.1016C40.0977 13.8874 40.166 13.6299 40.166 13.3291C40.166 12.9964 40.1022 12.7253 39.9746 12.5156C39.847 12.306 39.651 12.1533 39.3867 12.0576C39.127 11.9619 38.7943 11.9141 38.3887 11.9141H36.7275V20.5H35.0117V10.5469H38.3887C38.9355 10.5469 39.4232 10.5993 39.8516 10.7041C40.2845 10.8089 40.6514 10.973 40.9521 11.1963C41.2575 11.415 41.4876 11.693 41.6426 12.0303C41.8021 12.3675 41.8818 12.7686 41.8818 13.2334C41.8818 13.6436 41.7839 14.0195 41.5879 14.3613C41.3919 14.6986 41.1025 14.9743 40.7197 15.1885C40.3369 15.4027 39.8607 15.5303 39.291 15.5713L38.7441 16.002ZM38.6689 20.5H35.668L36.4404 19.1396H38.6689C39.0563 19.1396 39.3799 19.0758 39.6396 18.9482C39.8994 18.8161 40.0931 18.6361 40.2207 18.4082C40.3529 18.1758 40.4189 17.9046 40.4189 17.5947C40.4189 17.2712 40.362 16.9909 40.248 16.7539C40.1341 16.5124 39.9541 16.3278 39.708 16.2002C39.4619 16.068 39.1406 16.002 38.7441 16.002H36.8164L36.8301 14.751H39.3389L39.7285 15.2227C40.2754 15.2409 40.7243 15.3617 41.0752 15.585C41.4307 15.8083 41.695 16.0977 41.8682 16.4531C42.0413 16.8086 42.1279 17.1914 42.1279 17.6016C42.1279 18.235 41.9889 18.766 41.7109 19.1943C41.4375 19.6227 41.0433 19.9486 40.5283 20.1719C40.0133 20.3906 39.3936 20.5 38.6689 20.5ZM43.3789 16.8838V16.7266C43.3789 16.1934 43.4564 15.6989 43.6113 15.2432C43.7663 14.7829 43.9896 14.3841 44.2812 14.0469C44.5775 13.7051 44.9375 13.4408 45.3613 13.2539C45.7897 13.0625 46.2728 12.9668 46.8105 12.9668C47.3529 12.9668 47.8359 13.0625 48.2598 13.2539C48.6882 13.4408 49.0505 13.7051 49.3467 14.0469C49.6429 14.3841 49.8685 14.7829 50.0234 15.2432C50.1784 15.6989 50.2559 16.1934 50.2559 16.7266V16.8838C50.2559 17.417 50.1784 17.9115 50.0234 18.3672C49.8685 18.8229 49.6429 19.2217 49.3467 19.5635C49.0505 19.9007 48.6904 20.165 48.2666 20.3564C47.8428 20.5433 47.362 20.6367 46.8242 20.6367C46.2819 20.6367 45.7965 20.5433 45.3682 20.3564C44.9443 20.165 44.5843 19.9007 44.2881 19.5635C43.9919 19.2217 43.7663 18.8229 43.6113 18.3672C43.4564 17.9115 43.3789 17.417 43.3789 16.8838ZM45.0264 16.7266V16.8838C45.0264 17.2165 45.0605 17.5309 45.1289 17.8271C45.1973 18.1234 45.3044 18.3831 45.4502 18.6064C45.596 18.8298 45.7829 19.0052 46.0107 19.1328C46.2386 19.2604 46.5098 19.3242 46.8242 19.3242C47.1296 19.3242 47.3939 19.2604 47.6172 19.1328C47.8451 19.0052 48.0319 18.8298 48.1777 18.6064C48.3236 18.3831 48.4307 18.1234 48.499 17.8271C48.5719 17.5309 48.6084 17.2165 48.6084 16.8838V16.7266C48.6084 16.3984 48.5719 16.0885 48.499 15.7969C48.4307 15.5007 48.3213 15.2386 48.1709 15.0107C48.0251 14.7829 47.8382 14.6051 47.6104 14.4775C47.387 14.3454 47.1204 14.2793 46.8105 14.2793C46.5007 14.2793 46.2318 14.3454 46.0039 14.4775C45.7806 14.6051 45.596 14.7829 45.4502 15.0107C45.3044 15.2386 45.1973 15.5007 45.1289 15.7969C45.0605 16.0885 45.0264 16.3984 45.0264 16.7266ZM55.8066 19.0166V15.4893C55.8066 15.2249 55.7588 14.9971 55.6631 14.8057C55.5674 14.6143 55.4215 14.4661 55.2256 14.3613C55.0342 14.2565 54.7926 14.2041 54.501 14.2041C54.2321 14.2041 53.9997 14.2497 53.8037 14.3408C53.6077 14.432 53.4551 14.555 53.3457 14.71C53.2363 14.8649 53.1816 15.0404 53.1816 15.2363H51.541C51.541 14.9447 51.6117 14.6621 51.7529 14.3887C51.8942 14.1152 52.0993 13.8714 52.3682 13.6572C52.637 13.443 52.9583 13.2744 53.332 13.1514C53.7057 13.0283 54.125 12.9668 54.5898 12.9668C55.1458 12.9668 55.638 13.0602 56.0664 13.2471C56.4993 13.4339 56.8389 13.7165 57.085 14.0947C57.3356 14.4684 57.4609 14.9378 57.4609 15.5029V18.791C57.4609 19.1283 57.4837 19.4313 57.5293 19.7002C57.5794 19.9645 57.6501 20.1947 57.7412 20.3906V20.5H56.0527C55.9753 20.3223 55.9137 20.0967 55.8682 19.8232C55.8271 19.5452 55.8066 19.2764 55.8066 19.0166ZM56.0459 16.002L56.0596 17.0205H54.877C54.5716 17.0205 54.3027 17.0501 54.0703 17.1094C53.8379 17.1641 53.6442 17.2461 53.4893 17.3555C53.3343 17.4648 53.2181 17.597 53.1406 17.752C53.0632 17.9069 53.0244 18.0824 53.0244 18.2783C53.0244 18.4743 53.07 18.6543 53.1611 18.8184C53.2523 18.9779 53.3844 19.1032 53.5576 19.1943C53.7354 19.2855 53.9495 19.3311 54.2002 19.3311C54.5374 19.3311 54.8314 19.2627 55.082 19.126C55.3372 18.9847 55.5378 18.8138 55.6836 18.6133C55.8294 18.4082 55.9069 18.2145 55.916 18.0322L56.4492 18.7637C56.3945 18.9505 56.3011 19.151 56.1689 19.3652C56.0368 19.5794 55.8636 19.7845 55.6494 19.9805C55.4398 20.1719 55.1868 20.3291 54.8906 20.4521C54.599 20.5752 54.2617 20.6367 53.8789 20.6367C53.3958 20.6367 52.9652 20.541 52.5869 20.3496C52.2087 20.1536 51.9124 19.8916 51.6982 19.5635C51.484 19.2308 51.377 18.8548 51.377 18.4355C51.377 18.0436 51.4499 17.6973 51.5957 17.3965C51.7461 17.0911 51.9648 16.8359 52.252 16.6309C52.5436 16.4258 52.8991 16.2708 53.3184 16.166C53.7376 16.0566 54.2161 16.002 54.7539 16.002H56.0459ZM60.8379 14.5117V20.5H59.1904V13.1035H60.7627L60.8379 14.5117ZM63.1006 13.0557L63.0869 14.5869C62.9867 14.5687 62.8773 14.555 62.7588 14.5459C62.6449 14.5368 62.5309 14.5322 62.417 14.5322C62.1344 14.5322 61.8861 14.5732 61.6719 14.6553C61.4577 14.7327 61.2777 14.8467 61.1318 14.9971C60.9906 15.1429 60.8812 15.3206 60.8037 15.5303C60.7262 15.7399 60.6807 15.9746 60.667 16.2344L60.291 16.2617C60.291 15.7969 60.3366 15.3662 60.4277 14.9697C60.5189 14.5732 60.6556 14.2246 60.8379 13.9238C61.0247 13.623 61.2572 13.3883 61.5352 13.2197C61.8177 13.0511 62.1436 12.9668 62.5127 12.9668C62.613 12.9668 62.7201 12.9759 62.834 12.9941C62.9525 13.0124 63.0413 13.0329 63.1006 13.0557ZM68.5078 18.9688V10H70.1621V20.5H68.665L68.5078 18.9688ZM63.6953 16.8838V16.7402C63.6953 16.1797 63.7614 15.6693 63.8936 15.209C64.0257 14.7441 64.2171 14.3454 64.4678 14.0127C64.7184 13.6755 65.0238 13.418 65.3838 13.2402C65.7438 13.0579 66.1494 12.9668 66.6006 12.9668C67.0472 12.9668 67.4391 13.0534 67.7764 13.2266C68.1136 13.3997 68.4007 13.6481 68.6377 13.9717C68.8747 14.2907 69.0638 14.6735 69.2051 15.1201C69.3464 15.5622 69.4466 16.0544 69.5059 16.5967V17.0547C69.4466 17.5833 69.3464 18.0664 69.2051 18.5039C69.0638 18.9414 68.8747 19.3197 68.6377 19.6387C68.4007 19.9577 68.1113 20.2038 67.7695 20.377C67.4323 20.5501 67.0381 20.6367 66.5869 20.6367C66.1403 20.6367 65.737 20.5433 65.377 20.3564C65.0215 20.1696 64.7184 19.9076 64.4678 19.5703C64.2171 19.2331 64.0257 18.8366 63.8936 18.3809C63.7614 17.9206 63.6953 17.4215 63.6953 16.8838ZM65.3428 16.7402V16.8838C65.3428 17.221 65.3724 17.5355 65.4316 17.8271C65.4954 18.1188 65.5934 18.3763 65.7256 18.5996C65.8577 18.8184 66.0286 18.9915 66.2383 19.1191C66.4525 19.2422 66.7077 19.3037 67.0039 19.3037C67.3776 19.3037 67.6852 19.2217 67.9268 19.0576C68.1683 18.8936 68.3574 18.6725 68.4941 18.3945C68.6354 18.112 68.7311 17.7975 68.7812 17.4512V16.2139C68.7539 15.945 68.6969 15.6943 68.6104 15.4619C68.5283 15.2295 68.4167 15.0267 68.2754 14.8535C68.1341 14.6758 67.9587 14.5391 67.749 14.4434C67.5439 14.3431 67.3001 14.293 67.0176 14.293C66.7168 14.293 66.4616 14.3568 66.252 14.4844C66.0423 14.612 65.8691 14.7874 65.7324 15.0107C65.6003 15.234 65.5023 15.4938 65.4385 15.79C65.3747 16.0863 65.3428 16.403 65.3428 16.7402Z" fill="white"/>
</svg>
