<svg width="24" height="24" viewBox="0 0 24 24" fill="none" xmlns="http://www.w3.org/2000/svg">
<rect width="24" height="24" rx="12" fill="#091E42" fill-opacity="0.06"/>
<path fill-rule="evenodd" clip-rule="evenodd" d="M12.7475 5.87173C12.2269 5.35103 11.3826 5.35103 10.8619 5.87173L6.61928 10.1144C4.79683 11.9368 4.79683 14.8916 6.61928 16.714C8.44172 18.5364 11.3965 18.5364 13.2189 16.714L17.4616 12.4714C17.9823 11.9507 17.9823 11.1064 17.4616 10.5858L12.7475 5.87173ZM16.5188 11.5286L11.8047 6.81453L7.56209 11.0572C6.26034 12.3589 6.26034 14.4694 7.56209 15.7712C8.86384 17.073 10.9744 17.073 12.2761 15.7712L16.5188 11.5286ZM10.6667 13.3333C10.6667 13.7015 10.3682 14 10 14C9.63182 14 9.33334 13.7015 9.33334 13.3333C9.33334 12.9651 9.63182 12.6666 10 12.6666C10.3682 12.6666 10.6667 12.9651 10.6667 13.3333ZM12 13.3333C12 14.4379 11.1046 15.3333 10 15.3333C8.89544 15.3333 8 14.4379 8 13.3333C8 12.2287 8.89544 11.3333 10 11.3333C11.1046 11.3333 12 12.2287 12 13.3333Z" fill="#626F86"/>
</svg>
