<svg width="24" height="24" viewBox="0 0 24 24" fill="none" xmlns="http://www.w3.org/2000/svg">
<rect width="24" height="24" rx="12" fill="#C9372C"/>
<path d="M12.6667 7.99992C12.6667 7.63173 12.3682 7.33325 12 7.33325C11.6318 7.33325 11.3334 7.63173 11.3334 7.99992V11.9999C11.3334 12.1767 11.4036 12.3463 11.5286 12.4713L13.1953 14.138C13.4556 14.3983 13.8778 14.3983 14.1381 14.138C14.3984 13.8777 14.3984 13.4555 14.1381 13.1952L12.6667 11.7238V7.99992Z" fill="white"/>
<path fill-rule="evenodd" clip-rule="evenodd" d="M18.6667 11.9999C18.6667 15.6818 15.6819 18.6666 12 18.6666C8.31814 18.6666 5.33337 15.6818 5.33337 11.9999C5.33337 8.31802 8.31814 5.33325 12 5.33325C15.6819 5.33325 18.6667 8.31802 18.6667 11.9999ZM12 17.3333C14.9456 17.3333 17.3334 14.9455 17.3334 11.9999C17.3334 9.0544 14.9456 6.66659 12 6.66659C9.05452 6.66659 6.66671 9.0544 6.66671 11.9999C6.66671 14.9455 9.05452 17.3333 12 17.3333Z" fill="white"/>
</svg>
