<svg width="16" height="17" viewBox="0 0 16 17" fill="none" xmlns="http://www.w3.org/2000/svg">
<g clip-path="url(#clip0_4_2651)">
<path d="M2.87997 15.2265C2.84442 15.4754 2.90664 15.662 3.06664 15.7865C3.22664 15.9109 3.41331 15.9376 3.62664 15.8665L7.99997 13.5732L12.3733 15.8665C12.5866 15.9376 12.7733 15.9109 12.9333 15.7865C13.0933 15.662 13.1555 15.4754 13.12 15.2265L12.32 10.5332L15.84 7.17315C15.9822 6.99537 16.0266 6.79982 15.9733 6.58648C15.92 6.37315 15.7866 6.24871 15.5733 6.21315L10.6666 5.51982L8.47997 1.19982C8.37331 0.986485 8.21331 0.879819 7.99997 0.879819C7.78664 0.879819 7.62664 0.986485 7.51997 1.19982L5.33331 5.51982L0.479973 6.21315C0.231084 6.24871 0.0799733 6.37315 0.02664 6.58648C-0.0266934 6.79982 0.0177511 6.99537 0.159973 7.17315L3.67997 10.5332L2.87997 15.2265ZM7.78664 12.5065L4.10664 14.3732L4.79997 10.4265C4.83553 10.2132 4.7822 10.0354 4.63997 9.89315L1.70664 7.11982L5.75997 6.58648C5.93775 6.55093 6.0622 6.44426 6.13331 6.26649L7.99997 2.63982L9.86664 6.26649C9.93775 6.44426 10.0622 6.55093 10.24 6.58648L14.2933 7.11982L11.36 9.89315C11.2178 10.0354 11.1644 10.2132 11.2 10.4265L11.8933 14.3732L8.21331 12.5065C8.07108 12.3998 7.92886 12.3998 7.78664 12.5065Z" fill="#0D6EFD"/>
</g>
<defs>
<clipPath id="clip0_4_2651">
<rect width="16" height="16" fill="white" transform="matrix(1 0 0 -1 0 16.3999)"/>
</clipPath>
</defs>
</svg>
