<svg width="32" height="33" viewBox="0 0 32 33" fill="none" xmlns="http://www.w3.org/2000/svg">
<path d="M5.76001 30.0533C5.6889 30.5511 5.81334 30.9244 6.13334 31.1733C6.45334 31.4222 6.82667 31.4755 7.25334 31.3333L16 26.7466L24.7467 31.3333C25.1733 31.4755 25.5467 31.4222 25.8667 31.1733C26.1867 30.9244 26.3111 30.5511 26.24 30.0533L24.64 20.6666L31.68 13.9466C31.9645 13.5911 32.0533 13.2 31.9467 12.7733C31.84 12.3466 31.5733 12.0978 31.1467 12.0266L21.3333 10.64L16.96 1.99998C16.7467 1.57331 16.4267 1.35998 16 1.35998C15.5733 1.35998 15.2533 1.57331 15.04 1.99998L10.6667 10.64L0.960008 12.0266C0.46223 12.0978 0.160008 12.3466 0.053341 12.7733C-0.0533257 13.2 0.0355632 13.5911 0.320008 13.9466L7.36001 20.6666L5.76001 30.0533ZM15.5733 24.6133L8.21334 28.3466L9.60001 20.4533C9.67112 20.0266 9.56445 19.6711 9.28001 19.3866L3.41334 13.84L11.52 12.7733C11.8756 12.7022 12.1245 12.4889 12.2667 12.1333L16 4.87998L19.7333 12.1333C19.8756 12.4889 20.1245 12.7022 20.48 12.7733L28.5867 13.84L22.72 19.3866C22.4356 19.6711 22.3289 20.0266 22.4 20.4533L23.7867 28.3466L16.4267 24.6133C16.1422 24.4 15.8578 24.4 15.5733 24.6133Z" fill="#212529"/>
</svg>
