<svg width="16" height="16" viewBox="0 0 16 16" fill="none" xmlns="http://www.w3.org/2000/svg">
<path fill-rule="evenodd" clip-rule="evenodd" d="M7.05718 7.99992L3.52857 4.47133C3.26823 4.21097 3.26823 3.78887 3.52857 3.52851C3.78893 3.26817 4.21103 3.26817 4.47139 3.52851L7.99998 7.05712L11.5286 3.52851C11.7889 3.26817 12.211 3.26817 12.4714 3.52851C12.7317 3.78887 12.7317 4.21097 12.4714 4.47133L8.94278 7.99992L12.4714 11.5285C12.7317 11.7889 12.7317 12.211 12.4714 12.4713C12.211 12.7317 11.7889 12.7317 11.5286 12.4713L7.99998 8.94272L4.47139 12.4713C4.21103 12.7317 3.78893 12.7317 3.52857 12.4713C3.26823 12.211 3.26823 11.7889 3.52857 11.5285L7.05718 7.99992Z" fill="#626F86"/>
</svg>
