<svg width="13" height="14" viewBox="0 0 13 14" fill="none" xmlns="http://www.w3.org/2000/svg">
<path fill-rule="evenodd" clip-rule="evenodd" d="M7.74754 0.871726C7.22687 0.351026 6.3826 0.351026 5.86194 0.871726L1.61928 5.11437C-0.20317 6.93678 -0.20317 9.89158 1.61928 11.714C3.44172 13.5364 6.39647 13.5364 8.21894 11.714L12.4616 7.47138C12.9823 6.95071 12.9823 6.10645 12.4616 5.58577L7.74754 0.871726ZM11.5188 6.52858L6.80474 1.81453L2.56209 6.05718C1.26034 7.35891 1.26034 9.46945 2.56209 10.7712C3.86384 12.073 5.9744 12.073 7.27614 10.7712L11.5188 6.52858ZM5.66667 8.33331C5.66667 8.70151 5.36819 8.99998 5 8.99998C4.63182 8.99998 4.33334 8.70151 4.33334 8.33331C4.33334 7.96511 4.63182 7.66665 5 7.66665C5.36819 7.66665 5.66667 7.96511 5.66667 8.33331ZM7 8.33331C7 9.43791 6.1046 10.3333 5 10.3333C3.89544 10.3333 3 9.43791 3 8.33331C3 7.22871 3.89544 6.33331 5 6.33331C6.1046 6.33331 7 7.22871 7 8.33331Z" fill="white"/>
</svg>
