<svg width="18" height="8" viewBox="0 0 18 8" fill="none" xmlns="http://www.w3.org/2000/svg">
<path d="M5.062 2.99995L3.5 1.91395C3.31784 1.72535 3.21705 1.47275 3.21933 1.21055C3.2216 0.948352 3.32677 0.697539 3.51218 0.512131C3.69759 0.326723 3.9484 0.221555 4.2106 0.219276C4.4728 0.216998 4.7254 0.317792 4.914 0.49995L7.53 3.11595C7.81 3.28295 8 3.61595 8 3.99995C8 4.38395 7.81 4.71695 7.53 4.88395L4.914 7.49995C4.82175 7.59546 4.71141 7.67164 4.5894 7.72405C4.4674 7.77646 4.33618 7.80405 4.2034 7.8052C4.07062 7.80635 3.93894 7.78105 3.81605 7.73077C3.69315 7.68049 3.5815 7.60624 3.48761 7.51234C3.39371 7.41845 3.31946 7.3068 3.26918 7.1839C3.2189 7.06101 3.1936 6.92933 3.19475 6.79655C3.1959 6.66377 3.22349 6.53255 3.2759 6.41055C3.32831 6.28854 3.40449 6.1782 3.5 6.08595L5.062 4.99995H1.382C0.895 4.99995 0.5 4.55195 0.5 3.99995C0.5 3.44795 0.895 2.99995 1.382 2.99995H5.062ZM10.47 4.88395C10.19 4.71695 10 4.38395 10 3.99995C10 3.61595 10.19 3.28295 10.47 3.11595L13.086 0.49995C13.2746 0.317792 13.5272 0.216998 13.7894 0.219276C14.0516 0.221555 14.3024 0.326723 14.4878 0.512131C14.6732 0.697539 14.7784 0.948352 14.7807 1.21055C14.783 1.47275 14.6822 1.72535 14.5 1.91395L12.938 2.99995H16.618C17.105 2.99995 17.5 3.44795 17.5 3.99995C17.5 4.55195 17.105 4.99995 16.618 4.99995H12.938L14.5 6.08595C14.6822 6.27455 14.783 6.52715 14.7807 6.78935C14.7784 7.05155 14.6732 7.30236 14.4878 7.48777C14.3024 7.67318 14.0516 7.77835 13.7894 7.78062C13.5272 7.7829 13.2746 7.68211 13.086 7.49995L10.47 4.88395Z" fill="#626F86"/>
</svg>
