<svg width="16" height="17" viewBox="0 0 16 17" fill="none" xmlns="http://www.w3.org/2000/svg">
<path d="M2.02668 2.90655C1.88446 2.90655 1.76001 2.95099 1.65335 3.03988C1.54668 3.12877 1.49335 3.24433 1.49335 3.38655V4.39988C1.49335 4.5421 1.54668 4.65766 1.65335 4.74655C1.76001 4.83544 1.88446 4.87988 2.02668 4.87988H2.98668C3.1289 4.87988 3.25335 4.83544 3.36001 4.74655C3.46668 4.65766 3.52001 4.5421 3.52001 4.39988V3.38655C3.52001 3.24433 3.46668 3.12877 3.36001 3.03988C3.25335 2.95099 3.1289 2.90655 2.98668 2.90655H2.02668ZM2.98668 3.38655H2.02668V4.39988H2.98668V3.38655ZM5.01335 3.91988C5.01335 3.77766 5.05779 3.65322 5.14668 3.54655C5.23557 3.43988 5.35113 3.38655 5.49335 3.38655H14.5067C14.6489 3.38655 14.7645 3.43988 14.8533 3.54655C14.9422 3.65322 14.9867 3.77766 14.9867 3.91988C14.9867 4.06211 14.9422 4.17766 14.8533 4.26655C14.7645 4.35544 14.6489 4.39988 14.5067 4.39988H5.49335C5.35113 4.39988 5.23557 4.35544 5.14668 4.26655C5.05779 4.17766 5.01335 4.06211 5.01335 3.91988ZM5.49335 7.38655C5.35113 7.38655 5.23557 7.43988 5.14668 7.54655C5.05779 7.65322 5.01335 7.77766 5.01335 7.91988C5.01335 8.0621 5.05779 8.17766 5.14668 8.26655C5.23557 8.35544 5.35113 8.39988 5.49335 8.39988H14.5067C14.6489 8.39988 14.7645 8.35544 14.8533 8.26655C14.9422 8.17766 14.9867 8.0621 14.9867 7.91988C14.9867 7.77766 14.9422 7.65322 14.8533 7.54655C14.7645 7.43988 14.6489 7.38655 14.5067 7.38655H5.49335ZM5.49335 11.3865C5.35113 11.3865 5.23557 11.4399 5.14668 11.5465C5.05779 11.6532 5.01335 11.7777 5.01335 11.9199C5.01335 12.0621 5.05779 12.1777 5.14668 12.2665C5.23557 12.3554 5.35113 12.3999 5.49335 12.3999H14.5067C14.6489 12.3999 14.7645 12.3554 14.8533 12.2665C14.9422 12.1777 14.9867 12.0621 14.9867 11.9199C14.9867 11.7777 14.9422 11.6532 14.8533 11.5465C14.7645 11.4399 14.6489 11.3865 14.5067 11.3865H5.49335ZM1.49335 7.38655C1.49335 7.24433 1.54668 7.12877 1.65335 7.03988C1.76001 6.95099 1.88446 6.90655 2.02668 6.90655H2.98668C3.1289 6.90655 3.25335 6.95099 3.36001 7.03988C3.46668 7.12877 3.52001 7.24433 3.52001 7.38655V8.39988C3.52001 8.5421 3.46668 8.65766 3.36001 8.74655C3.25335 8.83544 3.1289 8.87988 2.98668 8.87988H2.02668C1.88446 8.87988 1.76001 8.83544 1.65335 8.74655C1.54668 8.65766 1.49335 8.5421 1.49335 8.39988V7.38655ZM2.02668 7.38655H2.98668V8.39988H2.02668V7.38655ZM2.02668 10.9065C1.88446 10.9065 1.76001 10.951 1.65335 11.0399C1.54668 11.1288 1.49335 11.2443 1.49335 11.3865V12.3999C1.49335 12.5421 1.54668 12.6577 1.65335 12.7465C1.76001 12.8354 1.88446 12.8799 2.02668 12.8799H2.98668C3.1289 12.8799 3.25335 12.8354 3.36001 12.7465C3.46668 12.6577 3.52001 12.5421 3.52001 12.3999V11.3865C3.52001 11.2443 3.46668 11.1288 3.36001 11.0399C3.25335 10.951 3.1289 10.9065 2.98668 10.9065H2.02668ZM2.98668 11.3865H2.02668V12.3999H2.98668V11.3865Z" fill="#0D6EFD"/>
</svg>
