<svg width="32" height="32" viewBox="0 0 32 32" fill="none" xmlns="http://www.w3.org/2000/svg">
<path d="M4.05336 5.01329C3.76892 5.01329 3.52003 5.10218 3.30669 5.27996C3.09336 5.45774 2.98669 5.68885 2.98669 5.97329V7.99996C2.98669 8.2844 3.09336 8.51552 3.30669 8.69329C3.52003 8.87107 3.76892 8.95996 4.05336 8.95996H5.97336C6.25781 8.95996 6.50669 8.87107 6.72003 8.69329C6.93336 8.51552 7.04003 8.2844 7.04003 7.99996V5.97329C7.04003 5.68885 6.93336 5.45774 6.72003 5.27996C6.50669 5.10218 6.25781 5.01329 5.97336 5.01329H4.05336ZM5.97336 5.97329H4.05336V7.99996H5.97336V5.97329ZM10.0267 7.03996C10.0267 6.75552 10.1156 6.50663 10.2934 6.29329C10.4711 6.07996 10.7023 5.97329 10.9867 5.97329H29.0134C29.2978 5.97329 29.5289 6.07996 29.7067 6.29329C29.8845 6.50663 29.9734 6.75552 29.9734 7.03996C29.9734 7.32441 29.8845 7.55552 29.7067 7.73329C29.5289 7.91107 29.2978 7.99996 29.0134 7.99996H10.9867C10.7023 7.99996 10.4711 7.91107 10.2934 7.73329C10.1156 7.55552 10.0267 7.32441 10.0267 7.03996ZM10.9867 13.9733C10.7023 13.9733 10.4711 14.08 10.2934 14.2933C10.1156 14.5066 10.0267 14.7555 10.0267 15.04C10.0267 15.3244 10.1156 15.5555 10.2934 15.7333C10.4711 15.9111 10.7023 16 10.9867 16H29.0134C29.2978 16 29.5289 15.9111 29.7067 15.7333C29.8845 15.5555 29.9734 15.3244 29.9734 15.04C29.9734 14.7555 29.8845 14.5066 29.7067 14.2933C29.5289 14.08 29.2978 13.9733 29.0134 13.9733H10.9867ZM10.9867 21.9733C10.7023 21.9733 10.4711 22.08 10.2934 22.2933C10.1156 22.5066 10.0267 22.7555 10.0267 23.04C10.0267 23.3244 10.1156 23.5555 10.2934 23.7333C10.4711 23.9111 10.7023 24 10.9867 24H29.0134C29.2978 24 29.5289 23.9111 29.7067 23.7333C29.8845 23.5555 29.9734 23.3244 29.9734 23.04C29.9734 22.7555 29.8845 22.5066 29.7067 22.2933C29.5289 22.08 29.2978 21.9733 29.0134 21.9733H10.9867ZM2.98669 13.9733C2.98669 13.6888 3.09336 13.4577 3.30669 13.28C3.52003 13.1022 3.76892 13.0133 4.05336 13.0133H5.97336C6.25781 13.0133 6.50669 13.1022 6.72003 13.28C6.93336 13.4577 7.04003 13.6888 7.04003 13.9733V16C7.04003 16.2844 6.93336 16.5155 6.72003 16.6933C6.50669 16.8711 6.25781 16.96 5.97336 16.96H4.05336C3.76892 16.96 3.52003 16.8711 3.30669 16.6933C3.09336 16.5155 2.98669 16.2844 2.98669 16V13.9733ZM4.05336 13.9733H5.97336V16H4.05336V13.9733ZM4.05336 21.0133C3.76892 21.0133 3.52003 21.1022 3.30669 21.28C3.09336 21.4577 2.98669 21.6888 2.98669 21.9733V24C2.98669 24.2844 3.09336 24.5155 3.30669 24.6933C3.52003 24.8711 3.76892 24.96 4.05336 24.96H5.97336C6.25781 24.96 6.50669 24.8711 6.72003 24.6933C6.93336 24.5155 7.04003 24.2844 7.04003 24V21.9733C7.04003 21.6888 6.93336 21.4577 6.72003 21.28C6.50669 21.1022 6.25781 21.0133 5.97336 21.0133H4.05336ZM5.97336 21.9733H4.05336V24H5.97336V21.9733Z" fill="#212529"/>
</svg>
