<svg width="16" height="17" viewBox="0 0 16 17" fill="none" xmlns="http://www.w3.org/2000/svg">
<g clip-path="url(#clip0_4_2655)">
<path d="M14.0267 1.41324C14.2756 1.41324 14.4978 1.51101 14.6933 1.70657C14.8889 1.90212 14.9867 2.12435 14.9867 2.37324V14.3732C14.9867 14.6577 14.8889 14.8977 14.6933 15.0932C14.4978 15.2888 14.2756 15.3866 14.0267 15.3866H2.02667C1.74222 15.3866 1.50222 15.2888 1.30667 15.0932C1.11111 14.8977 1.01333 14.6577 1.01333 14.3732V2.37324C1.01333 2.12435 1.11111 1.90212 1.30667 1.70657C1.50222 1.51101 1.72444 1.41324 1.97333 1.41324H14.0267ZM2.02667 0.399902C1.45778 0.399902 0.977778 0.595457 0.586667 0.986568C0.195556 1.37768 0 1.85768 0 2.42657V14.3732C0 14.9421 0.195556 15.4221 0.586667 15.8132C0.977778 16.2043 1.44 16.3999 1.97333 16.3999H14.0267C14.56 16.3999 15.0222 16.2043 15.4133 15.8132C15.8044 15.4221 16 14.9421 16 14.3732V2.37324C16 1.8399 15.8044 1.37768 15.4133 0.986568C15.0222 0.595457 14.5422 0.399902 13.9733 0.399902H2.02667ZM4.64 5.0399C4.74667 4.93324 4.87111 4.8799 5.01333 4.8799C5.15556 4.8799 5.26222 4.93324 5.33333 5.0399L8 7.70657L10.6667 5.0399C10.7378 4.93324 10.8444 4.8799 10.9867 4.8799C11.1289 4.8799 11.2533 4.93324 11.36 5.0399C11.4667 5.14657 11.52 5.27101 11.52 5.41324C11.52 5.55546 11.4667 5.66212 11.36 5.73324L8.69333 8.3999L11.36 11.0666C11.4667 11.1377 11.52 11.2443 11.52 11.3866C11.52 11.5288 11.4667 11.6532 11.36 11.7599C11.2533 11.8666 11.1289 11.9199 10.9867 11.9199C10.8444 11.9199 10.7378 11.8666 10.6667 11.7599L8 9.09324L5.33333 11.7599C5.26222 11.8666 5.15556 11.9199 5.01333 11.9199C4.87111 11.9199 4.74667 11.8666 4.64 11.7599C4.53333 11.6532 4.48 11.5288 4.48 11.3866C4.48 11.2443 4.53333 11.1377 4.64 11.0666L7.30667 8.3999L4.64 5.73324C4.53333 5.66212 4.48 5.55546 4.48 5.41324C4.48 5.27101 4.53333 5.14657 4.64 5.0399Z" fill="#0D6EFD"/>
</g>
<defs>
<clipPath id="clip0_4_2655">
<rect width="16" height="16" fill="white" transform="matrix(1 0 0 -1 0 16.3999)"/>
</clipPath>
</defs>
</svg>
