<svg width="17" height="17" viewBox="0 0 17 17" fill="none" xmlns="http://www.w3.org/2000/svg">
<g clip-path="url(#clip0_4_2799)">
<path d="M4.31004 0.199951C4.45226 0.199951 4.56782 0.244395 4.65671 0.333284C4.74559 0.422173 4.79004 0.537728 4.79004 0.679951V1.21328H12.79V0.679951C12.79 0.537728 12.8345 0.422173 12.9234 0.333284C13.0123 0.244395 13.1278 0.199951 13.27 0.199951C13.4123 0.199951 13.5367 0.244395 13.6434 0.333284C13.75 0.422173 13.8034 0.537728 13.8034 0.679951V1.21328H14.8167C15.35 1.21328 15.8123 1.40884 16.2034 1.79995C16.5945 2.19106 16.79 2.65328 16.79 3.18662V14.1733C16.79 14.7422 16.5945 15.2222 16.2034 15.6133C15.8123 16.0044 15.3323 16.2 14.7634 16.2H2.81671C2.24782 16.2 1.76782 16.0044 1.37671 15.6133C0.985595 15.2222 0.790039 14.76 0.790039 14.2266V3.18662C0.790039 2.65328 0.985595 2.19106 1.37671 1.79995C1.76782 1.40884 2.24782 1.21328 2.81671 1.21328H3.77671V0.679951C3.77671 0.537728 3.83004 0.422173 3.93671 0.333284C4.04337 0.244395 4.16782 0.199951 4.31004 0.199951ZM1.80337 4.19995V14.1733C1.80337 14.4577 1.90115 14.6977 2.09671 14.8933C2.29226 15.0888 2.53226 15.1866 2.81671 15.1866H14.8167C15.0656 15.1866 15.2878 15.0888 15.4834 14.8933C15.6789 14.6977 15.7767 14.4577 15.7767 14.1733V4.19995H1.80337Z" fill="#6C757D"/>
</g>
<defs>
<clipPath id="clip0_4_2799">
<rect width="16" height="16" fill="white" transform="matrix(1 0 0 -1 0.790039 16.2)"/>
</clipPath>
</defs>
</svg>
