<svg width="16" height="17" viewBox="0 0 16 17" fill="none" xmlns="http://www.w3.org/2000/svg">
<g clip-path="url(#clip0_4_2661)">
<path d="M8 5.14657C7.39556 5.14657 6.85333 5.29768 6.37333 5.5999C5.89333 5.90212 5.50222 6.29324 5.2 6.77324C4.89778 7.25324 4.74667 7.79546 4.74667 8.3999C4.74667 9.00435 4.89778 9.54657 5.2 10.0266C5.50222 10.5066 5.89333 10.8977 6.37333 11.1999C6.85333 11.5021 7.39556 11.6532 8 11.6532C8.60444 11.6532 9.14667 11.5021 9.62667 11.1999C10.1067 10.8977 10.4978 10.5066 10.8 10.0266C11.1022 9.54657 11.2533 9.00435 11.2533 8.3999C11.2533 7.79546 11.1022 7.25324 10.8 6.77324C10.4978 6.29324 10.1067 5.90212 9.62667 5.5999C9.14667 5.29768 8.60444 5.14657 8 5.14657ZM5.76 8.3999C5.76 7.79546 5.98222 7.27101 6.42667 6.82657C6.87111 6.38212 7.39556 6.1599 8 6.1599C8.60444 6.1599 9.12889 6.38212 9.57333 6.82657C10.0178 7.27101 10.24 7.79546 10.24 8.3999C10.24 9.00435 10.0178 9.52879 9.57333 9.97324C9.12889 10.4177 8.60444 10.6399 8 10.6399C7.39556 10.6399 6.87111 10.4177 6.42667 9.97324C5.98222 9.52879 5.76 9.00435 5.76 8.3999ZM9.81333 1.73324C9.63556 1.16435 9.28889 0.773235 8.77333 0.559902C8.25778 0.346569 7.74222 0.346569 7.22667 0.559902C6.71111 0.773235 6.36444 1.16435 6.18667 1.73324L6.13333 2.05324C6.02667 2.33768 5.84889 2.53324 5.6 2.6399C5.35111 2.74657 5.10222 2.72879 4.85333 2.58657L4.58667 2.42657C4.05333 2.14212 3.52889 2.10657 3.01333 2.3199C2.49778 2.53324 2.13333 2.89768 1.92 3.41324C1.70667 3.92879 1.74222 4.45324 2.02667 4.98657L2.18667 5.25324C2.32889 5.50212 2.34667 5.75101 2.24 5.9999C2.13333 6.24879 1.93778 6.42657 1.65333 6.53324L1.33333 6.58657C0.764444 6.76435 0.373333 7.11101 0.16 7.62657C-0.0533333 8.14212 -0.0533333 8.65768 0.16 9.17324C0.373333 9.68879 0.764444 10.0355 1.33333 10.2132L1.65333 10.2666C1.93778 10.3732 2.13333 10.551 2.24 10.7999C2.34667 11.0488 2.32889 11.2977 2.18667 11.5466L2.02667 11.8132C1.74222 12.3466 1.70667 12.871 1.92 13.3866C2.13333 13.9021 2.49778 14.2666 3.01333 14.4799C3.52889 14.6932 4.05333 14.6577 4.58667 14.3732L4.85333 14.2132C5.10222 14.071 5.35111 14.0532 5.6 14.1599C5.84889 14.2666 6.02667 14.4621 6.13333 14.7466L6.18667 15.0666C6.36444 15.6355 6.71111 16.0266 7.22667 16.2399C7.74222 16.4532 8.25778 16.4532 8.77333 16.2399C9.28889 16.0266 9.63556 15.6355 9.81333 15.0666L9.86667 14.7466C9.97333 14.4621 10.1511 14.2666 10.4 14.1599C10.6489 14.0532 10.8978 14.071 11.1467 14.2132L11.4133 14.3732C11.9467 14.6577 12.4711 14.6932 12.9867 14.4799C13.5022 14.2666 13.8667 13.9021 14.08 13.3866C14.2933 12.871 14.2578 12.3466 13.9733 11.8132L13.8133 11.5466C13.6711 11.2977 13.6533 11.0488 13.76 10.7999C13.8667 10.551 14.0622 10.3732 14.3467 10.2666L14.6667 10.2132C15.2356 10.0355 15.6267 9.68879 15.84 9.17324C16.0533 8.65768 16.0533 8.14212 15.84 7.62657C15.6267 7.11101 15.2356 6.76435 14.6667 6.58657L14.3467 6.53324C14.0622 6.42657 13.8667 6.24879 13.76 5.9999C13.6533 5.75101 13.6711 5.50212 13.8133 5.25324L13.9733 4.98657C14.2578 4.45324 14.2933 3.92879 14.08 3.41324C13.8667 2.89768 13.5022 2.53324 12.9867 2.3199C12.4711 2.10657 11.9467 2.14212 11.4133 2.42657L11.1467 2.58657C10.8978 2.72879 10.6489 2.74657 10.4 2.6399C10.1511 2.53324 9.97333 2.33768 9.86667 2.05324L9.81333 1.73324ZM7.14667 1.9999C7.25333 1.75101 7.42222 1.57324 7.65333 1.46657C7.88444 1.3599 8.11556 1.3599 8.34667 1.46657C8.57778 1.57324 8.74667 1.75101 8.85333 1.9999L8.90667 2.3199C9.01333 2.60435 9.15556 2.85324 9.33333 3.06657C9.51111 3.2799 9.73333 3.4399 10 3.54657C10.2667 3.65324 10.5422 3.69768 10.8267 3.6799C11.1111 3.66212 11.3778 3.58212 11.6267 3.4399L11.8933 3.2799C12.1422 3.17323 12.3911 3.16435 12.64 3.25324C12.8889 3.34212 13.0578 3.51101 13.1467 3.7599C13.2356 4.00879 13.2267 4.25768 13.12 4.50657L12.96 4.77324C12.8178 5.02212 12.7378 5.28879 12.72 5.57324C12.7022 5.85768 12.7467 6.13323 12.8533 6.3999C12.96 6.66657 13.12 6.88879 13.3333 7.06657C13.5467 7.24435 13.7956 7.38657 14.08 7.49324L14.4 7.54657C14.6489 7.65324 14.8267 7.82212 14.9333 8.05324C15.04 8.28435 15.04 8.51546 14.9333 8.74657C14.8267 8.97768 14.6489 9.14657 14.4 9.25324L14.08 9.30657C13.7956 9.41324 13.5467 9.55546 13.3333 9.73324C13.12 9.91101 12.96 10.1332 12.8533 10.3999C12.7467 10.6666 12.7022 10.9421 12.72 11.2266C12.7378 11.511 12.8178 11.7777 12.96 12.0266L13.12 12.2932C13.2267 12.5421 13.2356 12.791 13.1467 13.0399C13.0578 13.2888 12.8889 13.4577 12.64 13.5466C12.3911 13.6355 12.1422 13.6266 11.8933 13.5199L11.6267 13.3599C11.3778 13.2177 11.1111 13.1377 10.8267 13.1199C10.5422 13.1021 10.2667 13.1466 10 13.2532C9.73333 13.3599 9.51111 13.5199 9.33333 13.7332C9.15556 13.9466 9.01333 14.1955 8.90667 14.4799L8.85333 14.7999C8.74667 15.0488 8.57778 15.2266 8.34667 15.3332C8.11556 15.4399 7.88444 15.4399 7.65333 15.3332C7.42222 15.2266 7.25333 15.0488 7.14667 14.7999L7.09333 14.4799C6.98667 14.1955 6.84444 13.9466 6.66667 13.7332C6.48889 13.5199 6.26667 13.3599 6 13.2532C5.73333 13.1466 5.45778 13.1021 5.17333 13.1199C4.88889 13.1377 4.62222 13.2177 4.37333 13.3599L4.10667 13.5199C3.85778 13.6266 3.60889 13.6355 3.36 13.5466C3.11111 13.4577 2.94222 13.2888 2.85333 13.0399C2.76444 12.791 2.77333 12.5421 2.88 12.2932L3.04 12.0266C3.18222 11.7777 3.26222 11.511 3.28 11.2266C3.29778 10.9421 3.25333 10.6666 3.14667 10.3999C3.04 10.1332 2.88 9.91101 2.66667 9.73324C2.45333 9.55546 2.20444 9.41324 1.92 9.30657L1.6 9.25324C1.35111 9.14657 1.17333 8.97768 1.06667 8.74657C0.96 8.51546 0.96 8.28435 1.06667 8.05324C1.17333 7.82212 1.35111 7.65324 1.6 7.54657L1.92 7.49324C2.20444 7.38657 2.45333 7.24435 2.66667 7.06657C2.88 6.88879 3.04 6.66657 3.14667 6.3999C3.25333 6.13323 3.29778 5.85768 3.28 5.57324C3.26222 5.28879 3.18222 5.02212 3.04 4.77324L2.88 4.50657C2.77333 4.25768 2.76444 4.00879 2.85333 3.7599C2.94222 3.51101 3.11111 3.34212 3.36 3.25324C3.60889 3.16435 3.85778 3.17323 4.10667 3.2799L4.37333 3.4399C4.62222 3.58212 4.88889 3.66212 5.17333 3.6799C5.45778 3.69768 5.73333 3.65324 6 3.54657C6.26667 3.4399 6.48889 3.2799 6.66667 3.06657C6.84444 2.85324 6.98667 2.60435 7.09333 2.3199L7.14667 1.9999Z" fill="#0D6EFD"/>
</g>
<defs>
<clipPath id="clip0_4_2661">
<rect width="16" height="16" fill="white" transform="matrix(1 0 0 -1 0 16.3999)"/>
</clipPath>
</defs>
</svg>
