<svg width="16" height="17" viewBox="0 0 16 17" fill="none" xmlns="http://www.w3.org/2000/svg">
<g clip-path="url(#clip0_4_2665)">
<path d="M2.98664 2.37324C2.98664 2.12435 3.08442 1.90212 3.27997 1.70657C3.47553 1.51101 3.71553 1.41324 3.99997 1.41324H12C12.2844 1.41324 12.5244 1.51101 12.72 1.70657C12.9155 1.90212 13.0133 2.12435 13.0133 2.37324V15.3866H14.5066C14.6489 15.3866 14.7644 15.4399 14.8533 15.5466C14.9422 15.6532 14.9866 15.7777 14.9866 15.9199C14.9866 16.0621 14.9422 16.1777 14.8533 16.2666C14.7644 16.3555 14.6489 16.3999 14.5066 16.3999H1.49331C1.35108 16.3999 1.23553 16.3555 1.14664 16.2666C1.05775 16.1777 1.01331 16.0621 1.01331 15.9199C1.01331 15.7777 1.05775 15.6532 1.14664 15.5466C1.23553 15.4399 1.35108 15.3866 1.49331 15.3866H2.98664V2.37324ZM3.99997 15.3866H12V2.37324H3.99997V15.3866ZM9.01331 9.41324C9.01331 9.69768 9.11108 9.93768 9.30664 10.1332C9.50219 10.3288 9.73331 10.4266 9.99997 10.4266C10.2666 10.4266 10.4978 10.3288 10.6933 10.1332C10.8889 9.93768 10.9866 9.69768 10.9866 9.41324C10.9866 9.12879 10.8889 8.88879 10.6933 8.69324C10.4978 8.49768 10.2666 8.3999 9.99997 8.3999C9.73331 8.3999 9.50219 8.49768 9.30664 8.69324C9.11108 8.88879 9.01331 9.12879 9.01331 9.41324Z" fill="#0D6EFD"/>
</g>
<defs>
<clipPath id="clip0_4_2665">
<rect width="16" height="16" fill="white" transform="matrix(1 0 0 -1 0 16.3999)"/>
</clipPath>
</defs>
</svg>
