<svg width="16" height="16" viewBox="0 0 16 16" fill="none" xmlns="http://www.w3.org/2000/svg">
<g clip-path="url(#clip0_4_2841)">
<path d="M11.7334 10.3467C12.4089 9.45778 12.8178 8.47111 12.96 7.38667C13.1023 6.30222 12.9778 5.24444 12.5867 4.21333C12.1956 3.18222 11.5734 2.30222 10.72 1.57333C9.86671 0.844444 8.90671 0.364444 7.84004 0.133333C6.77338 -0.0977783 5.7156 -0.0533333 4.66671 0.266666C3.61782 0.586666 2.69338 1.13778 1.89338 1.92C1.09338 2.70222 0.542265 3.61778 0.240043 4.66667C-0.062179 5.71556 -0.0977346 6.77333 0.133377 7.84C0.364488 8.90667 0.844488 9.86667 1.57338 10.72C2.30227 11.5733 3.18227 12.1956 4.21338 12.5867C5.24449 12.9778 6.30227 13.1022 7.38671 12.96C8.47115 12.8178 9.45782 12.4089 10.3467 11.7333L14.2934 15.7333C14.4712 15.9111 14.7023 16 14.9867 16C15.2712 16 15.5112 15.9022 15.7067 15.7067C15.9023 15.5111 16 15.2711 16 14.9867C16 14.7022 15.9112 14.4711 15.7334 14.2933L11.7334 10.3467ZM12 6.50667C12 7.50222 11.7512 8.41778 11.2534 9.25333C10.7556 10.0889 10.0889 10.7556 9.25338 11.2533C8.41782 11.7511 7.50227 12 6.50671 12C5.51115 12 4.58671 11.7511 3.73338 11.2533C2.88004 10.7556 2.21338 10.0889 1.73338 9.25333C1.25338 8.41778 1.01338 7.50222 1.01338 6.50667C1.01338 5.51111 1.25338 4.58667 1.73338 3.73333C2.21338 2.88 2.88004 2.21333 3.73338 1.73333C4.58671 1.25333 5.51115 1.01333 6.50671 1.01333C7.50227 1.01333 8.41782 1.25333 9.25338 1.73333C10.0889 2.21333 10.7556 2.88 11.2534 3.73333C11.7512 4.58667 12 5.51111 12 6.50667Z" fill="black" fill-opacity="0.65"/>
</g>
<defs>
<clipPath id="clip0_4_2841">
<rect width="16" height="16" fill="white" transform="matrix(1 0 0 -1 0 16)"/>
</clipPath>
</defs>
</svg>
