<svg width="16" height="16" viewBox="0 0 16 16" fill="none" xmlns="http://www.w3.org/2000/svg">
<path d="M2.50671 12C2.50671 11.8578 2.55116 11.7422 2.64005 11.6533C2.72894 11.5644 2.84449 11.52 2.98671 11.52H13.0134C13.1556 11.52 13.2712 11.5644 13.36 11.6533C13.4489 11.7422 13.4934 11.8578 13.4934 12C13.4934 12.1422 13.4489 12.2578 13.36 12.3466C13.2712 12.4355 13.1556 12.48 13.0134 12.48H2.98671C2.84449 12.48 2.72894 12.4355 2.64005 12.3466C2.55116 12.2578 2.50671 12.1422 2.50671 12ZM2.50671 7.99998C2.50671 7.85776 2.55116 7.7422 2.64005 7.65331C2.72894 7.56442 2.84449 7.51998 2.98671 7.51998H13.0134C13.1556 7.51998 13.2712 7.56442 13.36 7.65331C13.4489 7.7422 13.4934 7.85776 13.4934 7.99998C13.4934 8.1422 13.4489 8.25776 13.36 8.34665C13.2712 8.43554 13.1556 8.47998 13.0134 8.47998H2.98671C2.84449 8.47998 2.72894 8.43554 2.64005 8.34665C2.55116 8.25776 2.50671 8.1422 2.50671 7.99998ZM2.50671 3.99998C2.50671 3.85776 2.55116 3.7422 2.64005 3.65331C2.72894 3.56442 2.84449 3.51998 2.98671 3.51998H13.0134C13.1556 3.51998 13.2712 3.56442 13.36 3.65331C13.4489 3.7422 13.4934 3.85776 13.4934 3.99998C13.4934 4.1422 13.4489 4.25776 13.36 4.34665C13.2712 4.43554 13.1556 4.47998 13.0134 4.47998H2.98671C2.84449 4.47998 2.72894 4.43554 2.64005 4.34665C2.55116 4.25776 2.50671 4.1422 2.50671 3.99998Z" fill="black" fill-opacity="0.65"/>
</svg>
